<svg xmlns="http://www.w3.org/2000/svg" viewBox="0 0 820 420" width="820" height="420">
  <defs>
    <linearGradient id="bgGrad" x1="0%" y1="0%" x2="100%" y2="100%">
      <stop offset="0%" style="stop-color:#0A1628"/>
      <stop offset="100%" style="stop-color:#030711"/>
    </linearGradient>
    <linearGradient id="pamGrad" x1="0%" y1="0%" x2="0%" y2="100%">
      <stop offset="0%" style="stop-color:#00B8FF;stop-opacity:0.18"/>
      <stop offset="100%" style="stop-color:#0060FF;stop-opacity:0.08"/>
    </linearGradient>
    <filter id="glow">
      <feGaussianBlur stdDeviation="3" result="coloredBlur"/>
      <feMerge><feMergeNode in="coloredBlur"/><feMergeNode in="SourceGraphic"/></feMerge>
    </filter>
    <marker id="arrowB" markerWidth="8" markerHeight="6" refX="7" refY="3" orient="auto">
      <polygon points="0 0, 8 3, 0 6" fill="#00B8FF" opacity="0.65"/>
    </marker>
    <marker id="arrowP" markerWidth="8" markerHeight="6" refX="7" refY="3" orient="auto">
      <polygon points="0 0, 8 3, 0 6" fill="#818cf8" opacity="0.65"/>
    </marker>
  </defs>

  <!-- Background -->
  <rect width="820" height="420" fill="url(#bgGrad)" rx="14"/>

  <!-- Subtle grid lines -->
  <line x1="0" y1="210" x2="820" y2="210" stroke="#ffffff" stroke-width="0.5" stroke-opacity="0.03"/>
  <line x1="410" y1="0" x2="410" y2="420" stroke="#ffffff" stroke-width="0.5" stroke-opacity="0.03"/>

  <!-- TOP TITLE -->
  <text x="410" y="42" text-anchor="middle" font-family="-apple-system, BlinkMacSystemFont, 'Segoe UI', Arial, sans-serif" font-size="18" font-weight="700" fill="#ffffff">How Privileged Access Management Works</text>
  <text x="410" y="64" text-anchor="middle" font-family="-apple-system, BlinkMacSystemFont, 'Segoe UI', Arial, sans-serif" font-size="12" fill="#64748b">Every privileged session is authenticated, controlled, and recorded through a central PAM gateway</text>

  <!-- COLUMN LABELS -->
  <text x="110" y="94" text-anchor="middle" font-family="Arial, sans-serif" font-size="10" font-weight="700" fill="#475569" letter-spacing="1.5">REQUESTERS</text>
  <text x="410" y="94" text-anchor="middle" font-family="Arial, sans-serif" font-size="10" font-weight="700" fill="#475569" letter-spacing="1.5">PAM PLATFORM</text>
  <text x="710" y="94" text-anchor="middle" font-family="Arial, sans-serif" font-size="10" font-weight="700" fill="#475569" letter-spacing="1.5">PROTECTED SYSTEMS</text>

  <!-- ── LEFT: REQUESTERS ── -->

  <!-- Admin User -->
  <rect x="22" y="106" width="176" height="60" rx="9" fill="#0D1F35" stroke="#1e3a5f" stroke-width="1.5"/>
  <circle cx="45" cy="136" r="10" fill="#00B8FF" fill-opacity="0.15" stroke="#00B8FF" stroke-width="1.2" stroke-opacity="0.5"/>
  <circle cx="45" cy="132" r="4" fill="#00B8FF" fill-opacity="0.7"/>
  <path d="M37 148 Q45 143 53 148" stroke="#00B8FF" stroke-width="1.3" fill="none" stroke-opacity="0.7"/>
  <text x="63" y="130" font-family="Arial, sans-serif" font-size="13" font-weight="600" fill="#e2e8f0">Admin User</text>
  <text x="63" y="146" font-family="Arial, sans-serif" font-size="11" fill="#64748b">IT administrator</text>
  <rect x="63" y="153" width="52" height="7" rx="3.5" fill="#00B8FF" fill-opacity="0.15"/>
  <text x="89" y="159" text-anchor="middle" font-family="Arial, sans-serif" font-size="9" font-weight="500" fill="#00B8FF">Elevated</text>

  <!-- DevOps -->
  <rect x="22" y="180" width="176" height="60" rx="9" fill="#0D1F35" stroke="#1e3a5f" stroke-width="1.5"/>
  <rect x="35" y="196" width="20" height="14" rx="3" fill="#818cf8" fill-opacity="0.2" stroke="#818cf8" stroke-width="1" stroke-opacity="0.5"/>
  <rect x="37" y="202" width="16" height="2" rx="1" fill="#818cf8" fill-opacity="0.6"/>
  <rect x="37" y="206" width="10" height="2" rx="1" fill="#818cf8" fill-opacity="0.4"/>
  <text x="63" y="204" font-family="Arial, sans-serif" font-size="13" font-weight="600" fill="#e2e8f0">DevOps Team</text>
  <text x="63" y="220" font-family="Arial, sans-serif" font-size="11" fill="#64748b">CI/CD pipelines</text>
  <rect x="63" y="227" width="62" height="7" rx="3.5" fill="#818cf8" fill-opacity="0.15"/>
  <text x="94" y="233" text-anchor="middle" font-family="Arial, sans-serif" font-size="9" font-weight="500" fill="#818cf8">Needs approval</text>

  <!-- Service Account -->
  <rect x="22" y="254" width="176" height="60" rx="9" fill="#0D1F35" stroke="#1e3a5f" stroke-width="1.5"/>
  <rect x="34" y="268" width="22" height="18" rx="4" fill="#34d399" fill-opacity="0.15" stroke="#34d399" stroke-width="1" stroke-opacity="0.4"/>
  <rect x="39" y="274" width="12" height="2" rx="1" fill="#34d399" fill-opacity="0.6"/>
  <rect x="39" y="278" width="8" height="2" rx="1" fill="#34d399" fill-opacity="0.5"/>
  <text x="63" y="278" font-family="Arial, sans-serif" font-size="13" font-weight="600" fill="#e2e8f0">Service Account</text>
  <text x="63" y="294" font-family="Arial, sans-serif" font-size="11" fill="#64748b">Automated tasks</text>
  <rect x="63" y="301" width="66" height="7" rx="3.5" fill="#34d399" fill-opacity="0.1"/>
  <text x="96" y="307" text-anchor="middle" font-family="Arial, sans-serif" font-size="9" font-weight="500" fill="#34d399">Auto-rotated</text>

  <!-- Third-party vendor -->
  <rect x="22" y="328" width="176" height="52" rx="9" fill="#0D1F35" stroke="#1e3a5f" stroke-width="1.5"/>
  <text x="110" y="351" text-anchor="middle" font-family="Arial, sans-serif" font-size="13" font-weight="600" fill="#e2e8f0">Third-Party Vendor</text>
  <text x="110" y="367" text-anchor="middle" font-family="Arial, sans-serif" font-size="11" fill="#64748b">Time-limited access only</text>

  <!-- ── ARROWS LEFT → CENTER ── -->
  <line x1="198" y1="136" x2="304" y2="200" stroke="#00B8FF" stroke-width="1.4" stroke-opacity="0.45" stroke-dasharray="5,3" marker-end="url(#arrowB)"/>
  <line x1="198" y1="210" x2="304" y2="223" stroke="#00B8FF" stroke-width="1.4" stroke-opacity="0.45" stroke-dasharray="5,3" marker-end="url(#arrowB)"/>
  <line x1="198" y1="284" x2="304" y2="248" stroke="#00B8FF" stroke-width="1.4" stroke-opacity="0.45" stroke-dasharray="5,3" marker-end="url(#arrowB)"/>
  <line x1="198" y1="354" x2="304" y2="260" stroke="#00B8FF" stroke-width="1.4" stroke-opacity="0.45" stroke-dasharray="5,3" marker-end="url(#arrowB)"/>

  <!-- ── CENTER: PAM PLATFORM ── -->
  <rect x="304" y="106" width="212" height="276" rx="14" fill="url(#pamGrad)" stroke="#00B8FF" stroke-width="2" stroke-opacity="0.55"/>
  <!-- Top accent bar -->
  <rect x="304" y="106" width="212" height="5" rx="3" fill="#00B8FF" fill-opacity="0.7" filter="url(#glow)"/>

  <text x="410" y="134" text-anchor="middle" font-family="Arial, sans-serif" font-size="15" font-weight="700" fill="#00B8FF">OmniPriv PAM</text>
  <line x1="324" y1="143" x2="496" y2="143" stroke="#00B8FF" stroke-width="0.6" stroke-opacity="0.25"/>

  <!-- Feature rows -->
  <rect x="322" y="151" width="176" height="30" rx="6" fill="#00B8FF" fill-opacity="0.07"/>
  <rect x="322" y="151" width="4" height="30" rx="2" fill="#00B8FF" fill-opacity="0.75"/>
  <text x="334" y="170" font-family="Arial, sans-serif" font-size="12" font-weight="500" fill="#e2e8f0">Credential Vaulting</text>

  <rect x="322" y="188" width="176" height="30" rx="6" fill="#00B8FF" fill-opacity="0.07"/>
  <rect x="322" y="188" width="4" height="30" rx="2" fill="#00B8FF" fill-opacity="0.75"/>
  <text x="334" y="207" font-family="Arial, sans-serif" font-size="12" font-weight="500" fill="#e2e8f0">MFA Enforcement</text>

  <rect x="322" y="225" width="176" height="30" rx="6" fill="#00B8FF" fill-opacity="0.07"/>
  <rect x="322" y="225" width="4" height="30" rx="2" fill="#00B8FF" fill-opacity="0.75"/>
  <text x="334" y="244" font-family="Arial, sans-serif" font-size="12" font-weight="500" fill="#e2e8f0">Session Recording</text>

  <rect x="322" y="262" width="176" height="30" rx="6" fill="#00B8FF" fill-opacity="0.07"/>
  <rect x="322" y="262" width="4" height="30" rx="2" fill="#00B8FF" fill-opacity="0.75"/>
  <text x="334" y="281" font-family="Arial, sans-serif" font-size="12" font-weight="500" fill="#e2e8f0">Just-In-Time Access</text>

  <rect x="322" y="299" width="176" height="30" rx="6" fill="#00B8FF" fill-opacity="0.07"/>
  <rect x="322" y="299" width="4" height="30" rx="2" fill="#00B8FF" fill-opacity="0.75"/>
  <text x="334" y="318" font-family="Arial, sans-serif" font-size="12" font-weight="500" fill="#e2e8f0">Approval Workflows</text>

  <rect x="322" y="336" width="176" height="30" rx="6" fill="#00B8FF" fill-opacity="0.07"/>
  <rect x="322" y="336" width="4" height="30" rx="2" fill="#00B8FF" fill-opacity="0.75"/>
  <text x="334" y="355" font-family="Arial, sans-serif" font-size="12" font-weight="500" fill="#e2e8f0">Immutable Audit Logs</text>

  <!-- ── ARROWS CENTER → RIGHT ── -->
  <line x1="516" y1="210" x2="618" y2="152" stroke="#818cf8" stroke-width="1.4" stroke-opacity="0.45" stroke-dasharray="5,3" marker-end="url(#arrowP)"/>
  <line x1="516" y1="232" x2="618" y2="234" stroke="#818cf8" stroke-width="1.4" stroke-opacity="0.45" stroke-dasharray="5,3" marker-end="url(#arrowP)"/>
  <line x1="516" y1="254" x2="618" y2="308" stroke="#818cf8" stroke-width="1.4" stroke-opacity="0.45" stroke-dasharray="5,3" marker-end="url(#arrowP)"/>

  <!-- ── RIGHT: TARGET SYSTEMS ── -->

  <!-- Servers -->
  <rect x="618" y="106" width="180" height="66" rx="9" fill="#0D1F35" stroke="#1e3a5f" stroke-width="1.5"/>
  <rect x="632" y="122" width="26" height="18" rx="3" fill="#818cf8" fill-opacity="0.2" stroke="#818cf8" stroke-width="1" stroke-opacity="0.4"/>
  <rect x="636" y="144" width="18" height="4" rx="2" fill="#818cf8" fill-opacity="0.35"/>
  <text x="668" y="128" font-family="Arial, sans-serif" font-size="13" font-weight="600" fill="#e2e8f0">Servers</text>
  <text x="668" y="143" font-family="Arial, sans-serif" font-size="11" fill="#64748b">Linux / Windows</text>
  <text x="668" y="158" font-family="Arial, sans-serif" font-size="10" fill="#475569">SSH / RDP sessions</text>

  <!-- Databases -->
  <rect x="618" y="184" width="180" height="66" rx="9" fill="#0D1F35" stroke="#1e3a5f" stroke-width="1.5"/>
  <ellipse cx="649" cy="208" rx="14" ry="6" fill="none" stroke="#818cf8" stroke-width="1.3" stroke-opacity="0.5"/>
  <line x1="635" y1="208" x2="635" y2="226" stroke="#818cf8" stroke-width="1.3" stroke-opacity="0.5"/>
  <line x1="663" y1="208" x2="663" y2="226" stroke="#818cf8" stroke-width="1.3" stroke-opacity="0.5"/>
  <ellipse cx="649" cy="226" rx="14" ry="6" fill="none" stroke="#818cf8" stroke-width="1.3" stroke-opacity="0.5"/>
  <text x="682" y="212" font-family="Arial, sans-serif" font-size="13" font-weight="600" fill="#e2e8f0">Databases</text>
  <text x="682" y="227" font-family="Arial, sans-serif" font-size="11" fill="#64748b">SQL / Oracle / NoSQL</text>
  <text x="682" y="241" font-family="Arial, sans-serif" font-size="10" fill="#475569">Query-level logging</text>

  <!-- Cloud -->
  <rect x="618" y="262" width="180" height="66" rx="9" fill="#0D1F35" stroke="#1e3a5f" stroke-width="1.5"/>
  <text x="708" y="287" text-anchor="middle" font-family="Arial, sans-serif" font-size="13" font-weight="600" fill="#e2e8f0">Cloud Infrastructure</text>
  <text x="708" y="302" text-anchor="middle" font-family="Arial, sans-serif" font-size="11" fill="#64748b">AWS / Azure / GCP</text>
  <text x="708" y="317" text-anchor="middle" font-family="Arial, sans-serif" font-size="10" fill="#34d399">IAM roles managed</text>

  <!-- Network Devices -->
  <rect x="618" y="340" width="180" height="46" rx="9" fill="#0D1F35" stroke="#1e3a5f" stroke-width="1.5"/>
  <text x="708" y="359" text-anchor="middle" font-family="Arial, sans-serif" font-size="13" font-weight="600" fill="#e2e8f0">Network Devices</text>
  <text x="708" y="374" text-anchor="middle" font-family="Arial, sans-serif" font-size="11" fill="#64748b">Firewalls / Switches</text>

  <!-- BOTTOM NOTE -->
  <text x="410" y="400" text-anchor="middle" font-family="Arial, sans-serif" font-size="11" fill="#334155">Credentials never leave the vault — admins access systems through proxied, fully recorded sessions</text>
</svg>
